<mxfile host="app.diagrams.net" modified="2023-11-23T07:16:14.652Z" agent="Mozilla/5.0 (Windows NT 10.0; Win64; x64) AppleWebKit/537.36 (KHTML, like Gecko) Chrome/119.0.0.0 Safari/537.36" etag="rjhw78Uyg0IOoVVV0HoT" version="22.1.3" type="github">
  <diagram name="Page-1" id="8ce9d11a-91a2-4d17-14d8-a56ed91bf033">
    <mxGraphModel dx="1050" dy="534" grid="1" gridSize="10" guides="1" tooltips="1" connect="1" arrows="1" fold="1" page="1" pageScale="1" pageWidth="1100" pageHeight="850" background="none" math="0" shadow="0">
      <root>
        <mxCell id="0" />
        <mxCell id="1" parent="0" />
        <object label="" id="gsZWW2OXpgVZkUkckgpa-1">
          <mxCell style="ellipse;whiteSpace=wrap;html=1;" vertex="1" parent="1">
            <mxGeometry x="40" y="10" width="120" height="80" as="geometry" />
          </mxCell>
        </object>
        <mxCell id="gsZWW2OXpgVZkUkckgpa-2" value="InÃ­cio" style="text;strokeColor=none;align=center;fillColor=none;html=1;verticalAlign=middle;whiteSpace=wrap;rounded=0;" vertex="1" parent="1">
          <mxGeometry x="70" y="35" width="60" height="30" as="geometry" />
        </mxCell>
        <mxCell id="gsZWW2OXpgVZkUkckgpa-4" value="Saldo" style="html=1;strokeWidth=2;shape=manualInput;whiteSpace=wrap;rounded=1;size=26;arcSize=11;" vertex="1" parent="1">
          <mxGeometry x="50" y="170" width="100" height="60" as="geometry" />
        </mxCell>
        <mxCell id="gsZWW2OXpgVZkUkckgpa-7" value="Saldo inicial: &quot; + saldo" style="shape=display;whiteSpace=wrap;html=1;" vertex="1" parent="1">
          <mxGeometry x="330" y="175" width="130" height="50" as="geometry" />
        </mxCell>
        <mxCell id="gsZWW2OXpgVZkUkckgpa-8" value="" style="edgeStyle=segmentEdgeStyle;endArrow=classic;html=1;curved=0;rounded=0;endSize=8;startSize=8;" edge="1" parent="1">
          <mxGeometry width="50" height="50" relative="1" as="geometry">
            <mxPoint x="400" y="230" as="sourcePoint" />
            <mxPoint x="180" y="320" as="targetPoint" />
            <Array as="points">
              <mxPoint x="405" y="230" />
              <mxPoint x="405" y="320" />
            </Array>
          </mxGeometry>
        </mxCell>
        <mxCell id="gsZWW2OXpgVZkUkckgpa-9" value="" style="endArrow=classic;html=1;rounded=0;" edge="1" parent="1">
          <mxGeometry width="50" height="50" relative="1" as="geometry">
            <mxPoint x="99.5" y="90" as="sourcePoint" />
            <mxPoint x="99.5" y="150" as="targetPoint" />
            <Array as="points" />
          </mxGeometry>
        </mxCell>
        <mxCell id="gsZWW2OXpgVZkUkckgpa-10" value="" style="endArrow=classic;html=1;rounded=0;" edge="1" parent="1">
          <mxGeometry width="50" height="50" relative="1" as="geometry">
            <mxPoint x="150" y="199.5" as="sourcePoint" />
            <mxPoint x="320" y="200" as="targetPoint" />
            <Array as="points">
              <mxPoint x="180" y="199.5" />
            </Array>
          </mxGeometry>
        </mxCell>
        <mxCell id="gsZWW2OXpgVZkUkckgpa-11" value="encerrar = &#39;n&#39;" style="shape=ext;double=1;rounded=1;whiteSpace=wrap;html=1;" vertex="1" parent="1">
          <mxGeometry x="40" y="280" width="120" height="50" as="geometry" />
        </mxCell>
        <mxCell id="gsZWW2OXpgVZkUkckgpa-12" value="" style="endArrow=classic;html=1;rounded=0;" edge="1" parent="1">
          <mxGeometry width="50" height="50" relative="1" as="geometry">
            <mxPoint x="94.5" y="340" as="sourcePoint" />
            <mxPoint x="94.5" y="380" as="targetPoint" />
          </mxGeometry>
        </mxCell>
        <mxCell id="gsZWW2OXpgVZkUkckgpa-13" value="encerrar = &#39;n&#39;&lt;br&gt;" style="html=1;whiteSpace=wrap;aspect=fixed;shape=isoRectangle;direction=south;" vertex="1" parent="1">
          <mxGeometry x="50" y="390" width="90" height="150" as="geometry" />
        </mxCell>
        <mxCell id="gsZWW2OXpgVZkUkckgpa-14" value="" style="endArrow=classic;html=1;rounded=0;" edge="1" parent="1">
          <mxGeometry width="50" height="50" relative="1" as="geometry">
            <mxPoint x="95" y="550" as="sourcePoint" />
            <mxPoint x="94.5" y="600" as="targetPoint" />
          </mxGeometry>
        </mxCell>
        <mxCell id="gsZWW2OXpgVZkUkckgpa-17" value="tipo de entrada&lt;br&gt;" style="html=1;strokeWidth=2;shape=manualInput;whiteSpace=wrap;rounded=1;size=26;arcSize=11;" vertex="1" parent="1">
          <mxGeometry x="45" y="600" width="100" height="60" as="geometry" />
        </mxCell>
        <mxCell id="gsZWW2OXpgVZkUkckgpa-18" value="" style="endArrow=classic;html=1;rounded=0;" edge="1" parent="1">
          <mxGeometry width="50" height="50" relative="1" as="geometry">
            <mxPoint x="99.5" y="670" as="sourcePoint" />
            <mxPoint x="99.5" y="720" as="targetPoint" />
          </mxGeometry>
        </mxCell>
        <mxCell id="gsZWW2OXpgVZkUkckgpa-19" value="quantidade&lt;br&gt;" style="html=1;strokeWidth=2;shape=manualInput;whiteSpace=wrap;rounded=1;size=26;arcSize=11;" vertex="1" parent="1">
          <mxGeometry x="50" y="730" width="100" height="60" as="geometry" />
        </mxCell>
        <mxCell id="gsZWW2OXpgVZkUkckgpa-20" value="" style="endArrow=classic;html=1;rounded=0;" edge="1" parent="1">
          <mxGeometry width="50" height="50" relative="1" as="geometry">
            <mxPoint x="99.5" y="810" as="sourcePoint" />
            <mxPoint x="99.5" y="840" as="targetPoint" />
            <Array as="points">
              <mxPoint x="99.5" y="830" />
            </Array>
          </mxGeometry>
        </mxCell>
        <mxCell id="gsZWW2OXpgVZkUkckgpa-21" value="encerrar = &#39;n&#39;&lt;br&gt;" style="html=1;whiteSpace=wrap;aspect=fixed;shape=isoRectangle;direction=south;" vertex="1" parent="1">
          <mxGeometry x="50" y="390" width="90" height="150" as="geometry" />
        </mxCell>
        <mxCell id="gsZWW2OXpgVZkUkckgpa-22" value="tipo entrada = 1&lt;br&gt;" style="html=1;whiteSpace=wrap;aspect=fixed;shape=isoRectangle;direction=south;" vertex="1" parent="1">
          <mxGeometry x="50" y="850" width="100" height="166.66" as="geometry" />
        </mxCell>
        <mxCell id="gsZWW2OXpgVZkUkckgpa-23" value="" style="endArrow=classic;html=1;rounded=0;" edge="1" parent="1">
          <mxGeometry width="50" height="50" relative="1" as="geometry">
            <mxPoint x="160" y="932.83" as="sourcePoint" />
            <mxPoint x="200" y="932.9900000000001" as="targetPoint" />
          </mxGeometry>
        </mxCell>
        <mxCell id="gsZWW2OXpgVZkUkckgpa-24" value="saldo = saldo + quantidade&lt;br&gt;&amp;nbsp;" style="rounded=1;whiteSpace=wrap;html=1;" vertex="1" parent="1">
          <mxGeometry x="210" y="903.33" width="120" height="60" as="geometry" />
        </mxCell>
        <mxCell id="gsZWW2OXpgVZkUkckgpa-25" value="" style="endArrow=classic;html=1;rounded=0;" edge="1" parent="1">
          <mxGeometry width="50" height="50" relative="1" as="geometry">
            <mxPoint x="340" y="932.83" as="sourcePoint" />
            <mxPoint x="390" y="932.9900000000001" as="targetPoint" />
            <Array as="points">
              <mxPoint x="340" y="932.83" />
            </Array>
          </mxGeometry>
        </mxCell>
      </root>
    </mxGraphModel>
  </diagram>
</mxfile>
